<svg xmlns="http://www.w3.org/2000/svg" xmlns:xlink="http://www.w3.org/1999/xlink" width="2000" zoomAndPan="magnify" viewBox="0 0 1500 1499.999933" height="2000" preserveAspectRatio="xMidYMid meet" version="1.0"><defs><g/><clipPath id="79cad0720a"><path d="M 32.1875 816.558594 L 380.902344 816.558594 L 380.902344 1165.269531 L 32.1875 1165.269531 Z M 32.1875 816.558594 " clip-rule="nonzero"/></clipPath><clipPath id="ef5edb1a23"><path d="M 206.546875 816.558594 C 110.25 816.558594 32.1875 894.621094 32.1875 990.914062 C 32.1875 1087.210938 110.25 1165.269531 206.546875 1165.269531 C 302.839844 1165.269531 380.902344 1087.210938 380.902344 990.914062 C 380.902344 894.621094 302.839844 816.558594 206.546875 816.558594 Z M 206.546875 816.558594 " clip-rule="nonzero"/></clipPath><clipPath id="4ef8d04770"><path d="M 205 866.261719 L 263 866.261719 L 263 1083 L 205 1083 Z M 205 866.261719 " clip-rule="nonzero"/></clipPath><clipPath id="aecc8a5cde"><path d="M 150 866.261719 L 208 866.261719 L 208 1085 L 150 1085 Z M 150 866.261719 " clip-rule="nonzero"/></clipPath><clipPath id="ba91013b4e"><path d="M 202 1053 L 217 1053 L 217 1115.261719 L 202 1115.261719 Z M 202 1053 " clip-rule="nonzero"/></clipPath><clipPath id="ee8139b3fc"><path d="M 209.511719 259.429688 L 558.226562 259.429688 L 558.226562 608.144531 L 209.511719 608.144531 Z M 209.511719 259.429688 " clip-rule="nonzero"/></clipPath><clipPath id="5e26ce510e"><path d="M 383.871094 259.429688 C 287.574219 259.429688 209.511719 337.492188 209.511719 433.785156 C 209.511719 530.082031 287.574219 608.144531 383.871094 608.144531 C 480.164062 608.144531 558.226562 530.082031 558.226562 433.785156 C 558.226562 337.492188 480.164062 259.429688 383.871094 259.429688 Z M 383.871094 259.429688 " clip-rule="nonzero"/></clipPath><clipPath id="c362ddb837"><path d="M 953.742188 259.429688 L 1302.453125 259.429688 L 1302.453125 608.144531 L 953.742188 608.144531 Z M 953.742188 259.429688 " clip-rule="nonzero"/></clipPath><clipPath id="8e29892e07"><path d="M 1128.097656 259.429688 C 1031.800781 259.429688 953.742188 337.492188 953.742188 433.785156 C 953.742188 530.082031 1031.800781 608.144531 1128.097656 608.144531 C 1224.390625 608.144531 1302.453125 530.082031 1302.453125 433.785156 C 1302.453125 337.492188 1224.390625 259.429688 1128.097656 259.429688 Z M 1128.097656 259.429688 " clip-rule="nonzero"/></clipPath><clipPath id="e316340e6d"><path d="M 1128.097656 817.71875 L 1476.8125 817.71875 L 1476.8125 1166.433594 L 1128.097656 1166.433594 Z M 1128.097656 817.71875 " clip-rule="nonzero"/></clipPath><clipPath id="d3fb1569f6"><path d="M 1302.453125 817.71875 C 1206.160156 817.71875 1128.097656 895.78125 1128.097656 992.078125 C 1128.097656 1088.371094 1206.160156 1166.433594 1302.453125 1166.433594 C 1398.75 1166.433594 1476.8125 1088.371094 1476.8125 992.078125 C 1476.8125 895.78125 1398.75 817.71875 1302.453125 817.71875 Z M 1302.453125 817.71875 " clip-rule="nonzero"/></clipPath><clipPath id="5e1260f1cb"><path d="M 1020.238281 337 L 1236.238281 337 L 1236.238281 530 L 1020.238281 530 Z M 1020.238281 337 " clip-rule="nonzero"/></clipPath><clipPath id="c09e1ec987"><path d="M 1207 879.195312 L 1411 879.195312 L 1411 1104 L 1207 1104 Z M 1207 879.195312 " clip-rule="nonzero"/></clipPath><clipPath id="f6e4acbf9e"><path d="M 558.226562 718.097656 L 921.730469 718.097656 L 921.730469 1081.597656 L 558.226562 1081.597656 Z M 558.226562 718.097656 " clip-rule="nonzero"/></clipPath></defs><path stroke-linecap="butt" transform="matrix(0.239872, -0.710606, 0.710606, 0.239872, 198.036199, 1019.975172)" fill="none" stroke-linejoin="miter" d="M -0.000560103 6.501751 L 912.912826 6.499451 " stroke="#dadaff" stroke-width="13" stroke-opacity="1" stroke-miterlimit="4"/><path stroke-linecap="butt" transform="matrix(0.75, 0, 0, 0.75, 491.797599, 433.560783)" fill="none" stroke-linejoin="miter" d="M -0.00096532 6.50229 L 912.910572 6.50229 " stroke="#dadaff" stroke-width="13" stroke-opacity="1" stroke-miterlimit="4"/><path stroke-linecap="butt" transform="matrix(-0.231989, -0.713219, 0.713219, -0.231989, 1326.349479, 1081.606399)" fill="none" stroke-linejoin="miter" d="M 0.00145823 6.499035 L 912.912674 6.498919 " stroke="#dadaff" stroke-width="13" stroke-opacity="1" stroke-miterlimit="4"/><g clip-path="url(#79cad0720a)"><g clip-path="url(#ef5edb1a23)"><path fill="#dadaff" d="M 32.1875 816.558594 L 380.902344 816.558594 L 380.902344 1165.269531 L 32.1875 1165.269531 Z M 32.1875 816.558594 " fill-opacity="1" fill-rule="nonzero"/></g></g><g clip-path="url(#4ef8d04770)"><path fill="#599636" d="M 206.183594 866.9375 L 212.839844 879.417969 C 214.335938 881.722656 215.957031 883.761719 217.867188 885.660156 C 223.441406 891.222656 228.734375 897.050781 233.488281 903.292969 C 244.765625 918.078125 252.375 934.496094 257.808594 952.253906 C 261.066406 963.097656 262.835938 974.226562 262.96875 985.476562 C 263.511719 1019.117188 251.960938 1048 228.671875 1072.003906 C 224.867188 1075.804688 220.796875 1079.320312 216.433594 1082.449219 C 214.125 1082.449219 213.035156 1080.679688 212.082031 1079.054688 C 210.3125 1076.074219 209.230469 1072.675781 208.683594 1069.289062 C 207.867188 1065.21875 207.328125 1061.152344 207.59375 1056.949219 L 207.59375 1055.050781 C 207.40625 1054.644531 205.371094 867.894531 206.183594 866.9375 Z M 206.183594 866.9375 " fill-opacity="1" fill-rule="nonzero"/></g><g clip-path="url(#aecc8a5cde)"><path fill="#6cac48" d="M 206.183594 866.527344 C 205.910156 865.980469 205.636719 866.394531 205.363281 866.660156 C 205.496094 869.382812 204.546875 871.808594 203.058594 874.128906 C 201.421875 876.429688 199.253906 878.199219 197.078125 880.097656 C 184.996094 890.539062 175.488281 903.152344 167.871094 917.261719 C 157.738281 936.246094 152.515625 956.59375 151.035156 978.015625 C 150.355469 985.742188 153.484375 1013.007812 155.921875 1020.875 C 162.578125 1041.761719 174.535156 1059.261719 190.023438 1074.449219 C 193.828125 1078.105469 197.898438 1081.5 202.105469 1084.757812 C 203.328125 1084.757812 203.460938 1083.667969 203.742188 1082.859375 C 204.28125 1081.125 204.6875 1079.363281 204.96875 1077.570312 L 207.695312 1057.230469 Z M 206.183594 866.527344 " fill-opacity="1" fill-rule="nonzero"/></g><g clip-path="url(#ba91013b4e)"><path fill="#c2bfbf" d="M 212.839844 1090.710938 C 213.113281 1087.597656 214.609375 1085.015625 216.238281 1082.441406 C 214.601562 1081.761719 213.386719 1080.417969 212.433594 1078.914062 C 211.617188 1077.5625 210.9375 1075.933594 210.40625 1074.441406 C 208.503906 1068.746094 208.101562 1062.769531 207.554688 1056.949219 L 207.554688 1053.425781 C 206.875 1053.96875 206.734375 1058.574219 206.734375 1059.261719 C 206.339844 1065.417969 205.523438 1071.523438 204.289062 1077.570312 C 203.882812 1080.011719 203.609375 1082.449219 202.105469 1084.617188 C 202.105469 1084.890625 202.105469 1085.164062 202.238281 1085.566406 C 204.6875 1092.757812 205.355469 1100.082031 205.769531 1107.542969 L 205.769531 1110.265625 C 205.769531 1113.519531 205.636719 1112.832031 208.34375 1113.921875 C 209.433594 1114.328125 210.648438 1114.46875 211.742188 1115.277344 C 212.558594 1115.277344 212.691406 1114.601562 212.691406 1114.054688 L 212.285156 1109.582031 L 212.285156 1097.101562 C 212.152344 1094.921875 212.558594 1092.757812 212.832031 1090.71875 Z M 212.839844 1090.710938 " fill-opacity="1" fill-rule="nonzero"/></g><g clip-path="url(#ee8139b3fc)"><g clip-path="url(#5e26ce510e)"><path fill="#dadaff" d="M 209.511719 259.429688 L 558.226562 259.429688 L 558.226562 608.144531 L 209.511719 608.144531 Z M 209.511719 259.429688 " fill-opacity="1" fill-rule="nonzero"/></g></g><g fill="#000000" fill-opacity="1"><g transform="translate(318.310142, 473.92948)"><g><path d="M 20.34375 -35.65625 L 20.34375 -7.34375 L 58.890625 -7.34375 L 58.890625 0 L 11.4375 0 L 11.4375 -75.65625 L 58.0625 -75.65625 L 58.0625 -68.3125 L 20.34375 -68.3125 L 20.34375 -43 L 53.609375 -43 L 53.609375 -35.65625 Z M 20.34375 -35.65625 "/></g></g></g><g fill="#000000" fill-opacity="1"><g transform="translate(382.221613, 473.92948)"><g><path d="M 12.734375 0 L 3 0 L 26.59375 -38.921875 L 4.09375 -75.65625 L 14.078125 -75.65625 L 33.0625 -44.96875 L 34.359375 -44.96875 L 53.609375 -75.65625 L 63.140625 -75.65625 L 40.625 -38.921875 L 64.21875 0 L 54.28125 0 L 34.15625 -32.765625 L 32.859375 -32.765625 Z M 12.734375 0 "/></g></g></g><g clip-path="url(#c362ddb837)"><g clip-path="url(#8e29892e07)"><path fill="#dadaff" d="M 953.742188 259.429688 L 1302.453125 259.429688 L 1302.453125 608.144531 L 953.742188 608.144531 Z M 953.742188 259.429688 " fill-opacity="1" fill-rule="nonzero"/></g></g><g clip-path="url(#e316340e6d)"><g clip-path="url(#d3fb1569f6)"><path fill="#dadaff" d="M 1128.097656 817.71875 L 1476.8125 817.71875 L 1476.8125 1166.433594 L 1128.097656 1166.433594 Z M 1128.097656 817.71875 " fill-opacity="1" fill-rule="nonzero"/></g></g><g clip-path="url(#5e1260f1cb)"><path fill="#00d8ff" d="M 1197.753906 400.082031 C 1195.457031 399.292969 1193.140625 398.5625 1190.804688 397.890625 C 1191.199219 396.289062 1191.558594 394.707031 1191.878906 393.152344 C 1197.140625 367.632812 1193.699219 347.074219 1181.953125 340.304688 C 1170.691406 333.816406 1152.269531 340.582031 1133.667969 356.761719 C 1131.832031 358.359375 1130.039062 360.003906 1128.289062 361.691406 C 1127.117188 360.566406 1125.925781 359.46875 1124.714844 358.390625 C 1105.214844 341.089844 1085.671875 333.800781 1073.9375 340.585938 C 1062.683594 347.097656 1059.351562 366.425781 1064.089844 390.609375 C 1064.558594 393.007812 1065.09375 395.390625 1065.683594 397.757812 C 1062.917969 398.542969 1060.25 399.378906 1057.695312 400.269531 C 1034.835938 408.234375 1020.238281 420.714844 1020.238281 433.660156 C 1020.238281 447.03125 1035.910156 460.441406 1059.71875 468.574219 C 1061.648438 469.230469 1063.59375 469.839844 1065.554688 470.398438 C 1064.917969 472.949219 1064.351562 475.515625 1063.859375 478.097656 C 1059.34375 501.867188 1062.871094 520.738281 1074.09375 527.203125 C 1085.683594 533.882812 1105.140625 527.019531 1124.082031 510.472656 C 1125.617188 509.125 1127.121094 507.742188 1128.589844 506.324219 C 1130.484375 508.148438 1132.429688 509.925781 1134.425781 511.644531 C 1152.773438 527.421875 1170.898438 533.792969 1182.109375 527.308594 C 1193.691406 520.609375 1197.453125 500.335938 1192.566406 475.671875 C 1192.183594 473.738281 1191.75 471.816406 1191.273438 469.90625 C 1192.640625 469.5 1193.980469 469.085938 1195.289062 468.652344 C 1220.039062 460.457031 1236.144531 447.210938 1236.144531 433.660156 C 1236.144531 420.667969 1221.074219 408.101562 1197.753906 400.082031 Z M 1192.386719 459.902344 C 1191.207031 460.292969 1189.996094 460.671875 1188.761719 461.039062 C 1186.027344 452.394531 1182.339844 443.203125 1177.828125 433.703125 C 1182.132812 424.433594 1185.679688 415.359375 1188.335938 406.773438 C 1190.542969 407.410156 1192.6875 408.085938 1194.753906 408.792969 C 1214.734375 415.667969 1226.921875 425.828125 1226.921875 433.660156 C 1226.921875 442 1213.757812 452.828125 1192.386719 459.902344 Z M 1183.519531 477.460938 C 1185.679688 488.367188 1185.988281 498.226562 1184.558594 505.9375 C 1183.273438 512.863281 1180.6875 517.480469 1177.488281 519.332031 C 1170.683594 523.265625 1156.132812 518.152344 1140.441406 504.65625 C 1138.585938 503.058594 1136.773438 501.410156 1135.011719 499.710938 C 1141.09375 493.0625 1147.175781 485.332031 1153.109375 476.746094 C 1163.546875 475.824219 1173.40625 474.308594 1182.351562 472.242188 C 1182.78125 473.972656 1183.171875 475.714844 1183.519531 477.460938 Z M 1093.84375 518.652344 C 1087.195312 520.996094 1081.902344 521.0625 1078.703125 519.21875 C 1071.890625 515.296875 1069.058594 500.144531 1072.921875 479.820312 C 1073.378906 477.417969 1073.90625 475.027344 1074.496094 472.65625 C 1083.339844 474.609375 1093.128906 476.015625 1103.59375 476.863281 C 1109.566406 485.265625 1115.824219 492.984375 1122.128906 499.746094 C 1120.789062 501.042969 1119.414062 502.304688 1118.015625 503.53125 C 1109.636719 510.847656 1101.242188 516.039062 1093.84375 518.652344 Z M 1062.703125 459.851562 C 1052.171875 456.257812 1043.480469 451.582031 1037.519531 446.484375 C 1032.164062 441.902344 1029.460938 437.351562 1029.460938 433.660156 C 1029.460938 425.804688 1041.179688 415.78125 1060.730469 408.972656 C 1063.101562 408.148438 1065.585938 407.367188 1068.164062 406.636719 C 1070.863281 415.417969 1074.410156 424.597656 1078.683594 433.882812 C 1074.351562 443.304688 1070.757812 452.636719 1068.03125 461.519531 C 1066.242188 461.007812 1064.464844 460.453125 1062.703125 459.851562 Z M 1073.140625 388.839844 C 1069.082031 368.117188 1071.777344 352.488281 1078.558594 348.566406 C 1085.78125 344.386719 1101.753906 350.34375 1118.589844 365.28125 C 1119.6875 366.257812 1120.765625 367.253906 1121.828125 368.269531 C 1115.554688 375 1109.355469 382.664062 1103.4375 391.015625 C 1093.28125 391.953125 1083.5625 393.464844 1074.625 395.488281 C 1074.074219 393.285156 1073.578125 391.070312 1073.140625 388.839844 Z M 1166.273438 411.820312 C 1164.164062 408.175781 1161.972656 404.582031 1159.707031 401.03125 C 1166.597656 401.902344 1173.195312 403.058594 1179.394531 404.46875 C 1177.535156 410.429688 1175.214844 416.660156 1172.484375 423.046875 C 1170.488281 419.265625 1168.417969 415.523438 1166.273438 411.820312 Z M 1128.292969 374.855469 C 1132.546875 379.460938 1136.808594 384.601562 1141 390.183594 C 1132.5 389.78125 1123.984375 389.78125 1115.480469 390.175781 C 1119.675781 384.648438 1123.972656 379.515625 1128.292969 374.855469 Z M 1090.070312 411.882812 C 1087.953125 415.554688 1085.921875 419.273438 1083.976562 423.039062 C 1081.289062 416.675781 1078.992188 410.417969 1077.117188 404.371094 C 1083.277344 402.996094 1089.84375 401.867188 1096.691406 401.015625 C 1094.398438 404.585938 1092.191406 408.210938 1090.070312 411.882812 Z M 1096.886719 466.960938 C 1089.8125 466.171875 1083.148438 465.105469 1076.988281 463.765625 C 1078.894531 457.613281 1081.242188 451.21875 1083.988281 444.71875 C 1085.9375 448.488281 1087.980469 452.207031 1090.105469 455.882812 C 1092.292969 459.65625 1094.558594 463.355469 1096.886719 466.960938 Z M 1128.546875 493.113281 C 1124.175781 488.398438 1119.816406 483.1875 1115.558594 477.578125 C 1119.691406 477.738281 1123.90625 477.824219 1128.191406 477.824219 C 1132.589844 477.824219 1136.941406 477.722656 1141.222656 477.535156 C 1137.019531 483.242188 1132.773438 488.464844 1128.546875 493.113281 Z M 1172.570312 444.386719 C 1175.457031 450.960938 1177.890625 457.316406 1179.820312 463.363281 C 1173.5625 464.792969 1166.804688 465.941406 1159.679688 466.796875 C 1161.964844 463.179688 1164.171875 459.519531 1166.308594 455.816406 C 1168.480469 452.054688 1170.570312 448.242188 1172.570312 444.386719 Z M 1158.320312 451.214844 C 1155.050781 456.890625 1151.59375 462.460938 1147.960938 467.914062 C 1141.382812 468.378906 1134.785156 468.609375 1128.191406 468.605469 C 1121.472656 468.605469 1114.933594 468.398438 1108.640625 467.988281 C 1104.914062 462.550781 1101.394531 456.96875 1098.089844 451.265625 C 1094.800781 445.585938 1091.726562 439.789062 1088.878906 433.878906 C 1091.71875 427.96875 1094.785156 422.167969 1098.0625 416.488281 C 1101.339844 410.804688 1104.832031 405.25 1108.53125 399.835938 C 1114.949219 399.347656 1121.535156 399.097656 1128.1875 399.097656 L 1128.191406 399.097656 C 1134.875 399.097656 1141.46875 399.351562 1147.886719 399.839844 C 1151.546875 405.25 1155.019531 410.785156 1158.289062 416.4375 C 1161.578125 422.105469 1164.683594 427.878906 1167.597656 433.75 C 1164.714844 439.679688 1161.617188 445.503906 1158.320312 451.214844 Z M 1177.347656 348.289062 C 1184.578125 352.457031 1187.386719 369.257812 1182.847656 391.292969 C 1182.554688 392.699219 1182.230469 394.132812 1181.875 395.582031 C 1172.917969 393.515625 1163.191406 391.980469 1153.007812 391.027344 C 1147.074219 382.582031 1140.925781 374.90625 1134.757812 368.265625 C 1136.375 366.707031 1138.027344 365.1875 1139.722656 363.710938 C 1155.660156 349.851562 1170.558594 344.378906 1177.347656 348.289062 Z M 1128.191406 414.394531 C 1138.835938 414.394531 1147.46875 423.019531 1147.46875 433.660156 C 1147.46875 444.300781 1138.835938 452.925781 1128.191406 452.925781 C 1117.542969 452.925781 1108.910156 444.300781 1108.910156 433.660156 C 1108.910156 423.019531 1117.542969 414.394531 1128.191406 414.394531 Z M 1128.191406 414.394531 " fill-opacity="1" fill-rule="nonzero"/></g><g clip-path="url(#c09e1ec987)"><path fill="#8cc84b" d="M 1299.578125 882.199219 C 1305.199219 879.015625 1312.371094 879 1317.855469 882.199219 L 1401.824219 929.550781 C 1407.078125 932.503906 1410.589844 938.363281 1410.542969 944.417969 L 1410.542969 1039.359375 C 1410.578125 1045.667969 1406.71875 1051.652344 1401.179688 1054.550781 L 1317.660156 1101.683594 C 1316.230469 1102.472656 1314.722656 1103.0625 1313.136719 1103.445312 C 1311.550781 1103.832031 1309.941406 1104.003906 1308.3125 1103.957031 C 1306.679688 1103.914062 1305.082031 1103.652344 1303.523438 1103.179688 C 1301.960938 1102.707031 1300.488281 1102.039062 1299.105469 1101.171875 L 1274.042969 1086.683594 C 1272.332031 1085.664062 1270.414062 1084.855469 1269.207031 1083.203125 C 1270.273438 1081.765625 1272.171875 1081.585938 1273.71875 1080.953125 C 1277.207031 1079.839844 1280.398438 1078.136719 1283.605469 1076.335938 C 1284.410156 1075.773438 1285.402344 1075.984375 1286.175781 1076.492188 L 1307.546875 1088.855469 C 1309.074219 1089.734375 1310.621094 1088.574219 1311.929688 1087.835938 L 1393.9375 1041.539062 C 1394.949219 1041.046875 1395.511719 1039.980469 1395.425781 1038.867188 L 1395.425781 944.839844 C 1395.539062 943.574219 1394.816406 942.421875 1393.667969 941.90625 L 1310.359375 894.976562 C 1309.871094 894.636719 1309.324219 894.46875 1308.726562 894.464844 C 1308.128906 894.464844 1307.585938 894.632812 1307.089844 894.972656 L 1223.902344 942 C 1222.777344 942.511719 1222.003906 943.652344 1222.144531 944.917969 L 1222.144531 1038.945312 C 1222.046875 1040.054688 1222.636719 1041.105469 1223.65625 1041.582031 L 1245.886719 1054.136719 C 1250.0625 1056.386719 1255.1875 1057.652344 1259.785156 1056 C 1260.789062 1055.621094 1261.71875 1055.097656 1262.5625 1054.4375 C 1263.410156 1053.773438 1264.140625 1053 1264.75 1052.113281 C 1265.359375 1051.226562 1265.824219 1050.273438 1266.140625 1049.246094 C 1266.457031 1048.21875 1266.613281 1047.164062 1266.609375 1046.089844 L 1266.632812 952.625 C 1266.535156 951.238281 1267.839844 950.09375 1269.183594 950.234375 L 1279.871094 950.234375 C 1281.277344 950.199219 1282.378906 951.691406 1282.191406 953.082031 L 1282.167969 1047.136719 C 1282.175781 1055.492188 1278.746094 1064.578125 1271.019531 1068.679688 C 1261.5 1073.601562 1249.730469 1072.566406 1240.324219 1067.835938 L 1216.421875 1054.613281 C 1210.796875 1051.800781 1207.023438 1045.722656 1207.058594 1039.421875 L 1207.058594 944.480469 C 1207.070312 942.9375 1207.285156 941.425781 1207.699219 939.9375 C 1208.117188 938.453125 1208.722656 937.046875 1209.515625 935.726562 C 1210.304688 934.402344 1211.257812 933.203125 1212.371094 932.136719 C 1213.484375 931.066406 1214.714844 930.164062 1216.070312 929.425781 Z M 1323.789062 948.011719 C 1335.929688 947.308594 1348.929688 947.546875 1359.855469 953.53125 C 1368.3125 958.117188 1373 967.738281 1373.15625 977.148438 C 1372.917969 978.414062 1371.59375 979.117188 1370.386719 979.027344 C 1366.871094 979.019531 1363.339844 979.074219 1359.8125 979.003906 C 1358.316406 979.0625 1357.449219 977.683594 1357.261719 976.359375 C 1356.246094 971.859375 1353.792969 967.40625 1349.5625 965.234375 C 1343.066406 961.980469 1335.527344 962.140625 1328.441406 962.210938 C 1323.269531 962.492188 1317.707031 962.933594 1313.328125 965.972656 C 1309.953125 968.28125 1308.941406 973.007812 1310.144531 976.675781 C 1311.269531 979.371094 1314.382812 980.234375 1316.921875 981.039062 C 1331.558594 984.863281 1347.058594 984.554688 1361.421875 989.527344 C 1367.363281 991.578125 1373.175781 995.574219 1375.214844 1001.796875 C 1377.871094 1010.140625 1376.710938 1020.109375 1370.785156 1026.804688 C 1365.976562 1032.320312 1358.976562 1035.246094 1351.980469 1036.949219 C 1342.679688 1039.023438 1333.035156 1039.070312 1323.59375 1038.144531 C 1314.710938 1037.128906 1305.476562 1034.796875 1298.621094 1028.746094 C 1292.757812 1023.65625 1289.902344 1015.722656 1290.183594 1008.070312 C 1290.253906 1006.777344 1291.539062 1005.878906 1292.785156 1005.984375 L 1303.332031 1005.984375 C 1304.75 1005.882812 1305.792969 1007.109375 1305.863281 1008.445312 C 1306.515625 1012.664062 1308.125 1017.234375 1311.867188 1019.695312 C 1319.078125 1024.351562 1328.125 1024.027344 1336.378906 1024.160156 C 1343.21875 1023.859375 1350.898438 1023.769531 1356.488281 1019.238281 C 1359.4375 1016.65625 1360.304688 1012.347656 1359.507812 1008.632812 C 1358.644531 1005.496094 1355.292969 1004.042969 1352.480469 1003.007812 C 1338.03125 998.4375 1322.355469 1000.097656 1308.046875 994.921875 C 1302.242188 992.867188 1296.625 988.984375 1294.394531 983.015625 C 1291.28125 974.574219 1292.707031 964.117188 1299.265625 957.648438 C 1305.59375 951.210938 1314.875 948.730469 1323.664062 947.84375 Z M 1323.789062 948.011719 " fill-opacity="1" fill-rule="nonzero"/></g><g clip-path="url(#f6e4acbf9e)"><path fill="#d10000" d="M 558.226562 718.097656 L 921.730469 718.097656 L 921.730469 1081.597656 L 558.226562 1081.597656 Z M 558.226562 718.097656 " fill-opacity="1" fill-rule="nonzero"/></g><g fill="#ffffff" fill-opacity="1"><g transform="translate(636.461178, 925.846532)"><g><path d="M 14.28125 0 L 7.046875 0 L 7.046875 -49.96875 L 17.84375 -49.96875 L 31.75 -10.453125 L 32.46875 -10.453125 L 46.3125 -49.96875 L 56.84375 -49.96875 L 56.84375 0 L 49.359375 0 L 49.359375 -36.921875 L 48.5 -37.046875 L 35.34375 0 L 28.296875 0 L 15.140625 -37.046875 L 14.28125 -36.921875 Z M 14.28125 0 "/></g></g></g><g fill="#ffffff" fill-opacity="1"><g transform="translate(700.339449, 925.846532)"><g><path d="M 14.90625 -22.765625 L 14.90625 -6.5625 L 39.578125 -6.5625 L 39.578125 0 L 7.046875 0 L 7.046875 -49.96875 L 39.03125 -49.96875 L 39.03125 -43.40625 L 14.90625 -43.40625 L 14.90625 -29.21875 L 36.09375 -29.21875 L 36.09375 -22.765625 Z M 14.90625 -22.765625 "/></g></g></g><g fill="#ffffff" fill-opacity="1"><g transform="translate(742.924959, 925.846532)"><g><path d="M 7.046875 0 L 7.046875 -49.96875 L 26.140625 -49.96875 C 29.535156 -49.96875 32.390625 -49.421875 34.703125 -48.328125 C 37.015625 -47.234375 38.738281 -45.675781 39.875 -43.65625 C 41.019531 -41.644531 41.59375 -39.257812 41.59375 -36.5 C 41.59375 -33.425781 40.820312 -30.90625 39.28125 -28.9375 C 37.75 -26.96875 35.398438 -25.476562 32.234375 -24.46875 L 32.234375 -23.75 C 33.828125 -23.09375 35.117188 -22.085938 36.109375 -20.734375 C 37.097656 -19.378906 38.023438 -17.351562 38.890625 -14.65625 L 43.71875 0 L 35.609375 0 L 33.359375 -6.90625 C 32.171875 -10.550781 31.269531 -13.285156 30.65625 -15.109375 C 30.113281 -16.773438 29.492188 -18.070312 28.796875 -19 C 28.097656 -19.9375 27.207031 -20.609375 26.125 -21.015625 C 25.039062 -21.429688 23.660156 -21.640625 21.984375 -21.640625 L 14.90625 -21.640625 L 14.90625 0 Z M 25.46875 -28.03125 C 30.957031 -28.03125 33.703125 -30.613281 33.703125 -35.78125 C 33.703125 -40.976562 30.957031 -43.578125 25.46875 -43.578125 L 14.90625 -43.578125 L 14.90625 -28.03125 Z M 25.46875 -28.03125 "/></g></g></g><g fill="#ffffff" fill-opacity="1"><g transform="translate(789.44092, 925.846532)"><g><path d="M 14.703125 0 L 7.046875 0 L 7.046875 -49.96875 L 16.296875 -49.96875 L 38.515625 -14.796875 L 39.375 -14.9375 L 39.375 -49.96875 L 47 -49.96875 L 47 0 L 38.859375 0 L 15.546875 -37.625 L 14.703125 -37.5 Z M 14.703125 0 "/></g></g></g><g fill="#0097b2" fill-opacity="1"><g transform="translate(232.680354, 231.762501)"><g><path d="M 10.546875 -29.53125 L 10.546875 -20.703125 L 22.421875 -20.703125 L 22.421875 -15.09375 L 10.546875 -15.09375 L 10.546875 -5.75 L 23.921875 -5.75 L 23.921875 0 L 3.484375 0 L 3.484375 -35.28125 L 23.921875 -35.28125 L 23.921875 -29.53125 Z M 10.546875 -29.53125 "/></g></g></g><g fill="#0097b2" fill-opacity="1"><g transform="translate(259.535829, 231.762501)"><g><path d="M 24.578125 0 L 16.96875 -11.859375 L 10.046875 0 L 2.0625 0 L 13.171875 -17.765625 L 1.921875 -35.234375 L 10.046875 -35.234375 L 17.671875 -23.421875 L 24.53125 -35.234375 L 32.515625 -35.234375 L 21.453125 -17.515625 L 32.71875 0 Z M 24.578125 0 "/></g></g></g><g fill="#0097b2" fill-opacity="1"><g transform="translate(294.165255, 231.762501)"><g><path d="M 29.1875 -24.328125 C 29.1875 -22.441406 28.738281 -20.675781 27.84375 -19.03125 C 26.945312 -17.382812 25.546875 -16.054688 23.640625 -15.046875 C 21.742188 -14.035156 19.347656 -13.53125 16.453125 -13.53125 L 10.546875 -13.53125 L 10.546875 0 L 3.484375 0 L 3.484375 -35.234375 L 16.453125 -35.234375 C 19.179688 -35.234375 21.503906 -34.757812 23.421875 -33.8125 C 25.335938 -32.875 26.773438 -31.582031 27.734375 -29.9375 C 28.703125 -28.289062 29.1875 -26.421875 29.1875 -24.328125 Z M 16.15625 -19.234375 C 18.101562 -19.234375 19.546875 -19.675781 20.484375 -20.5625 C 21.429688 -21.457031 21.90625 -22.710938 21.90625 -24.328125 C 21.90625 -27.765625 19.988281 -29.484375 16.15625 -29.484375 L 10.546875 -29.484375 L 10.546875 -19.234375 Z M 16.15625 -19.234375 "/></g></g></g><g fill="#0097b2" fill-opacity="1"><g transform="translate(324.857229, 231.762501)"><g><path d="M 21.65625 0 L 13.890625 -13.734375 L 10.546875 -13.734375 L 10.546875 0 L 3.484375 0 L 3.484375 -35.234375 L 16.703125 -35.234375 C 19.429688 -35.234375 21.753906 -34.753906 23.671875 -33.796875 C 25.597656 -32.835938 27.039062 -31.539062 28 -29.90625 C 28.957031 -28.28125 29.4375 -26.457031 29.4375 -24.4375 C 29.4375 -22.113281 28.757812 -20.015625 27.40625 -18.140625 C 26.0625 -16.273438 24.0625 -14.988281 21.40625 -14.28125 L 29.84375 0 Z M 10.546875 -19.03125 L 16.453125 -19.03125 C 18.367188 -19.03125 19.796875 -19.492188 20.734375 -20.421875 C 21.679688 -21.347656 22.15625 -22.632812 22.15625 -24.28125 C 22.15625 -25.894531 21.679688 -27.144531 20.734375 -28.03125 C 19.796875 -28.925781 18.367188 -29.375 16.453125 -29.375 L 10.546875 -29.375 Z M 10.546875 -19.03125 "/></g></g></g><g fill="#0097b2" fill-opacity="1"><g transform="translate(357.215041, 231.762501)"><g><path d="M 10.546875 -29.53125 L 10.546875 -20.703125 L 22.421875 -20.703125 L 22.421875 -15.09375 L 10.546875 -15.09375 L 10.546875 -5.75 L 23.921875 -5.75 L 23.921875 0 L 3.484375 0 L 3.484375 -35.28125 L 23.921875 -35.28125 L 23.921875 -29.53125 Z M 10.546875 -29.53125 "/></g></g></g><g fill="#0097b2" fill-opacity="1"><g transform="translate(384.070516, 231.762501)"><g><path d="M 15.65625 0.359375 C 13.195312 0.359375 10.984375 -0.0625 9.015625 -0.90625 C 7.046875 -1.75 5.488281 -2.960938 4.34375 -4.546875 C 3.195312 -6.128906 2.609375 -7.992188 2.578125 -10.140625 L 10.140625 -10.140625 C 10.242188 -8.691406 10.757812 -7.546875 11.6875 -6.703125 C 12.613281 -5.867188 13.882812 -5.453125 15.5 -5.453125 C 17.144531 -5.453125 18.4375 -5.847656 19.375 -6.640625 C 20.320312 -7.429688 20.796875 -8.46875 20.796875 -9.75 C 20.796875 -10.789062 20.472656 -11.644531 19.828125 -12.3125 C 19.191406 -12.988281 18.394531 -13.519531 17.4375 -13.90625 C 16.476562 -14.289062 15.160156 -14.722656 13.484375 -15.203125 C 11.191406 -15.867188 9.328125 -16.53125 7.890625 -17.1875 C 6.460938 -17.84375 5.234375 -18.832031 4.203125 -20.15625 C 3.179688 -21.488281 2.671875 -23.269531 2.671875 -25.5 C 2.671875 -27.582031 3.191406 -29.394531 4.234375 -30.9375 C 5.285156 -32.488281 6.75 -33.675781 8.625 -34.5 C 10.507812 -35.332031 12.664062 -35.75 15.09375 -35.75 C 18.726562 -35.75 21.679688 -34.863281 23.953125 -33.09375 C 26.222656 -31.320312 27.476562 -28.859375 27.71875 -25.703125 L 19.9375 -25.703125 C 19.875 -26.910156 19.363281 -27.910156 18.40625 -28.703125 C 17.445312 -29.492188 16.175781 -29.890625 14.59375 -29.890625 C 13.207031 -29.890625 12.101562 -29.535156 11.28125 -28.828125 C 10.457031 -28.117188 10.046875 -27.09375 10.046875 -25.75 C 10.046875 -24.800781 10.359375 -24.015625 10.984375 -23.390625 C 11.609375 -22.773438 12.378906 -22.269531 13.296875 -21.875 C 14.222656 -21.488281 15.53125 -21.046875 17.21875 -20.546875 C 19.5 -19.867188 21.363281 -19.191406 22.8125 -18.515625 C 24.257812 -17.847656 25.503906 -16.84375 26.546875 -15.5 C 27.597656 -14.15625 28.125 -12.390625 28.125 -10.203125 C 28.125 -8.316406 27.632812 -6.566406 26.65625 -4.953125 C 25.675781 -3.335938 24.242188 -2.046875 22.359375 -1.078125 C 20.472656 -0.117188 18.238281 0.359375 15.65625 0.359375 Z M 15.65625 0.359375 "/></g></g></g><g fill="#0097b2" fill-opacity="1"><g transform="translate(414.812966, 231.762501)"><g><path d="M 15.65625 0.359375 C 13.195312 0.359375 10.984375 -0.0625 9.015625 -0.90625 C 7.046875 -1.75 5.488281 -2.960938 4.34375 -4.546875 C 3.195312 -6.128906 2.609375 -7.992188 2.578125 -10.140625 L 10.140625 -10.140625 C 10.242188 -8.691406 10.757812 -7.546875 11.6875 -6.703125 C 12.613281 -5.867188 13.882812 -5.453125 15.5 -5.453125 C 17.144531 -5.453125 18.4375 -5.847656 19.375 -6.640625 C 20.320312 -7.429688 20.796875 -8.46875 20.796875 -9.75 C 20.796875 -10.789062 20.472656 -11.644531 19.828125 -12.3125 C 19.191406 -12.988281 18.394531 -13.519531 17.4375 -13.90625 C 16.476562 -14.289062 15.160156 -14.722656 13.484375 -15.203125 C 11.191406 -15.867188 9.328125 -16.53125 7.890625 -17.1875 C 6.460938 -17.84375 5.234375 -18.832031 4.203125 -20.15625 C 3.179688 -21.488281 2.671875 -23.269531 2.671875 -25.5 C 2.671875 -27.582031 3.191406 -29.394531 4.234375 -30.9375 C 5.285156 -32.488281 6.75 -33.675781 8.625 -34.5 C 10.507812 -35.332031 12.664062 -35.75 15.09375 -35.75 C 18.726562 -35.75 21.679688 -34.863281 23.953125 -33.09375 C 26.222656 -31.320312 27.476562 -28.859375 27.71875 -25.703125 L 19.9375 -25.703125 C 19.875 -26.910156 19.363281 -27.910156 18.40625 -28.703125 C 17.445312 -29.492188 16.175781 -29.890625 14.59375 -29.890625 C 13.207031 -29.890625 12.101562 -29.535156 11.28125 -28.828125 C 10.457031 -28.117188 10.046875 -27.09375 10.046875 -25.75 C 10.046875 -24.800781 10.359375 -24.015625 10.984375 -23.390625 C 11.609375 -22.773438 12.378906 -22.269531 13.296875 -21.875 C 14.222656 -21.488281 15.53125 -21.046875 17.21875 -20.546875 C 19.5 -19.867188 21.363281 -19.191406 22.8125 -18.515625 C 24.257812 -17.847656 25.503906 -16.84375 26.546875 -15.5 C 27.597656 -14.15625 28.125 -12.390625 28.125 -10.203125 C 28.125 -8.316406 27.632812 -6.566406 26.65625 -4.953125 C 25.675781 -3.335938 24.242188 -2.046875 22.359375 -1.078125 C 20.472656 -0.117188 18.238281 0.359375 15.65625 0.359375 Z M 15.65625 0.359375 "/></g></g></g><g fill="#0097b2" fill-opacity="1"><g transform="translate(445.555417, 231.762501)"><g/></g></g><g fill="#0097b2" fill-opacity="1"><g transform="translate(457.569696, 231.762501)"><g><path d="M 24.03125 -35.234375 L 24.03125 -10.5 C 24.03125 -7.0625 23.035156 -4.390625 21.046875 -2.484375 C 19.066406 -0.585938 16.410156 0.359375 13.078125 0.359375 C 9.710938 0.359375 6.992188 -0.613281 4.921875 -2.5625 C 2.847656 -4.519531 1.8125 -7.25 1.8125 -10.75 L 8.890625 -10.75 C 8.921875 -9.238281 9.28125 -8.0625 9.96875 -7.21875 C 10.65625 -6.375 11.65625 -5.953125 12.96875 -5.953125 C 14.25 -5.953125 15.222656 -6.351562 15.890625 -7.15625 C 16.566406 -7.96875 16.90625 -9.082031 16.90625 -10.5 L 16.90625 -35.234375 Z M 24.03125 -35.234375 "/></g></g></g><g fill="#0097b2" fill-opacity="1"><g transform="translate(486.343433, 231.762501)"><g><path d="M 15.65625 0.359375 C 13.195312 0.359375 10.984375 -0.0625 9.015625 -0.90625 C 7.046875 -1.75 5.488281 -2.960938 4.34375 -4.546875 C 3.195312 -6.128906 2.609375 -7.992188 2.578125 -10.140625 L 10.140625 -10.140625 C 10.242188 -8.691406 10.757812 -7.546875 11.6875 -6.703125 C 12.613281 -5.867188 13.882812 -5.453125 15.5 -5.453125 C 17.144531 -5.453125 18.4375 -5.847656 19.375 -6.640625 C 20.320312 -7.429688 20.796875 -8.46875 20.796875 -9.75 C 20.796875 -10.789062 20.472656 -11.644531 19.828125 -12.3125 C 19.191406 -12.988281 18.394531 -13.519531 17.4375 -13.90625 C 16.476562 -14.289062 15.160156 -14.722656 13.484375 -15.203125 C 11.191406 -15.867188 9.328125 -16.53125 7.890625 -17.1875 C 6.460938 -17.84375 5.234375 -18.832031 4.203125 -20.15625 C 3.179688 -21.488281 2.671875 -23.269531 2.671875 -25.5 C 2.671875 -27.582031 3.191406 -29.394531 4.234375 -30.9375 C 5.285156 -32.488281 6.75 -33.675781 8.625 -34.5 C 10.507812 -35.332031 12.664062 -35.75 15.09375 -35.75 C 18.726562 -35.75 21.679688 -34.863281 23.953125 -33.09375 C 26.222656 -31.320312 27.476562 -28.859375 27.71875 -25.703125 L 19.9375 -25.703125 C 19.875 -26.910156 19.363281 -27.910156 18.40625 -28.703125 C 17.445312 -29.492188 16.175781 -29.890625 14.59375 -29.890625 C 13.207031 -29.890625 12.101562 -29.535156 11.28125 -28.828125 C 10.457031 -28.117188 10.046875 -27.09375 10.046875 -25.75 C 10.046875 -24.800781 10.359375 -24.015625 10.984375 -23.390625 C 11.609375 -22.773438 12.378906 -22.269531 13.296875 -21.875 C 14.222656 -21.488281 15.53125 -21.046875 17.21875 -20.546875 C 19.5 -19.867188 21.363281 -19.191406 22.8125 -18.515625 C 24.257812 -17.847656 25.503906 -16.84375 26.546875 -15.5 C 27.597656 -14.15625 28.125 -12.390625 28.125 -10.203125 C 28.125 -8.316406 27.632812 -6.566406 26.65625 -4.953125 C 25.675781 -3.335938 24.242188 -2.046875 22.359375 -1.078125 C 20.472656 -0.117188 18.238281 0.359375 15.65625 0.359375 Z M 15.65625 0.359375 "/></g></g></g><g fill="#0097b2" fill-opacity="1"><g transform="translate(517.089654, 231.762501)"><g/></g></g><g fill="#0097b2" fill-opacity="1"><g transform="translate(1010.082378, 232.354079)"><g><path d="M 21.65625 0 L 13.890625 -13.734375 L 10.546875 -13.734375 L 10.546875 0 L 3.484375 0 L 3.484375 -35.234375 L 16.703125 -35.234375 C 19.429688 -35.234375 21.753906 -34.753906 23.671875 -33.796875 C 25.597656 -32.835938 27.039062 -31.539062 28 -29.90625 C 28.957031 -28.28125 29.4375 -26.457031 29.4375 -24.4375 C 29.4375 -22.113281 28.757812 -20.015625 27.40625 -18.140625 C 26.0625 -16.273438 24.0625 -14.988281 21.40625 -14.28125 L 29.84375 0 Z M 10.546875 -19.03125 L 16.453125 -19.03125 C 18.367188 -19.03125 19.796875 -19.492188 20.734375 -20.421875 C 21.679688 -21.347656 22.15625 -22.632812 22.15625 -24.28125 C 22.15625 -25.894531 21.679688 -27.144531 20.734375 -28.03125 C 19.796875 -28.925781 18.367188 -29.375 16.453125 -29.375 L 10.546875 -29.375 Z M 10.546875 -19.03125 "/></g></g></g><g fill="#0097b2" fill-opacity="1"><g transform="translate(1042.44019, 232.354079)"><g><path d="M 10.546875 -29.53125 L 10.546875 -20.703125 L 22.421875 -20.703125 L 22.421875 -15.09375 L 10.546875 -15.09375 L 10.546875 -5.75 L 23.921875 -5.75 L 23.921875 0 L 3.484375 0 L 3.484375 -35.28125 L 23.921875 -35.28125 L 23.921875 -29.53125 Z M 10.546875 -29.53125 "/></g></g></g><g fill="#0097b2" fill-opacity="1"><g transform="translate(1069.295665, 232.354079)"><g><path d="M 25.09375 -6.71875 L 11.0625 -6.71875 L 8.734375 0 L 1.3125 0 L 13.984375 -35.28125 L 22.21875 -35.28125 L 34.890625 0 L 27.40625 0 Z M 23.171875 -12.375 L 18.078125 -27.109375 L 12.96875 -12.375 Z M 23.171875 -12.375 "/></g></g></g><g fill="#0097b2" fill-opacity="1"><g transform="translate(1105.439501, 232.354079)"><g><path d="M 1.765625 -17.671875 C 1.765625 -21.140625 2.546875 -24.242188 4.109375 -26.984375 C 5.679688 -29.722656 7.820312 -31.859375 10.53125 -33.390625 C 13.238281 -34.921875 16.273438 -35.6875 19.640625 -35.6875 C 23.578125 -35.6875 27.023438 -34.675781 29.984375 -32.65625 C 32.953125 -30.644531 35.023438 -27.851562 36.203125 -24.28125 L 28.0625 -24.28125 C 27.257812 -25.96875 26.125 -27.226562 24.65625 -28.0625 C 23.195312 -28.90625 21.507812 -29.328125 19.59375 -29.328125 C 17.539062 -29.328125 15.710938 -28.847656 14.109375 -27.890625 C 12.515625 -26.929688 11.269531 -25.578125 10.375 -23.828125 C 9.476562 -22.078125 9.03125 -20.023438 9.03125 -17.671875 C 9.03125 -15.347656 9.476562 -13.300781 10.375 -11.53125 C 11.269531 -9.769531 12.515625 -8.40625 14.109375 -7.4375 C 15.710938 -6.476562 17.539062 -6 19.59375 -6 C 21.507812 -6 23.195312 -6.425781 24.65625 -7.28125 C 26.125 -8.144531 27.257812 -9.421875 28.0625 -11.109375 L 36.203125 -11.109375 C 35.023438 -7.503906 32.960938 -4.703125 30.015625 -2.703125 C 27.066406 -0.703125 23.609375 0.296875 19.640625 0.296875 C 16.273438 0.296875 13.238281 -0.46875 10.53125 -2 C 7.820312 -3.53125 5.679688 -5.65625 4.109375 -8.375 C 2.546875 -11.101562 1.765625 -14.203125 1.765625 -17.671875 Z M 1.765625 -17.671875 "/></g></g></g><g fill="#0097b2" fill-opacity="1"><g transform="translate(1144.208304, 232.354079)"><g><path d="M 27.46875 -35.234375 L 27.46875 -29.53125 L 18.078125 -29.53125 L 18.078125 0 L 11 0 L 11 -29.53125 L 1.609375 -29.53125 L 1.609375 -35.234375 Z M 27.46875 -35.234375 "/></g></g></g><g fill="#0097b2" fill-opacity="1"><g transform="translate(1173.335382, 232.354079)"><g/></g></g><g fill="#0097b2" fill-opacity="1"><g transform="translate(1185.349673, 232.354079)"><g><path d="M 24.03125 -35.234375 L 24.03125 -10.5 C 24.03125 -7.0625 23.035156 -4.390625 21.046875 -2.484375 C 19.066406 -0.585938 16.410156 0.359375 13.078125 0.359375 C 9.710938 0.359375 6.992188 -0.613281 4.921875 -2.5625 C 2.847656 -4.519531 1.8125 -7.25 1.8125 -10.75 L 8.890625 -10.75 C 8.921875 -9.238281 9.28125 -8.0625 9.96875 -7.21875 C 10.65625 -6.375 11.65625 -5.953125 12.96875 -5.953125 C 14.25 -5.953125 15.222656 -6.351562 15.890625 -7.15625 C 16.566406 -7.96875 16.90625 -9.082031 16.90625 -10.5 L 16.90625 -35.234375 Z M 24.03125 -35.234375 "/></g></g></g><g fill="#0097b2" fill-opacity="1"><g transform="translate(1214.12341, 232.354079)"><g><path d="M 15.65625 0.359375 C 13.195312 0.359375 10.984375 -0.0625 9.015625 -0.90625 C 7.046875 -1.75 5.488281 -2.960938 4.34375 -4.546875 C 3.195312 -6.128906 2.609375 -7.992188 2.578125 -10.140625 L 10.140625 -10.140625 C 10.242188 -8.691406 10.757812 -7.546875 11.6875 -6.703125 C 12.613281 -5.867188 13.882812 -5.453125 15.5 -5.453125 C 17.144531 -5.453125 18.4375 -5.847656 19.375 -6.640625 C 20.320312 -7.429688 20.796875 -8.46875 20.796875 -9.75 C 20.796875 -10.789062 20.472656 -11.644531 19.828125 -12.3125 C 19.191406 -12.988281 18.394531 -13.519531 17.4375 -13.90625 C 16.476562 -14.289062 15.160156 -14.722656 13.484375 -15.203125 C 11.191406 -15.867188 9.328125 -16.53125 7.890625 -17.1875 C 6.460938 -17.84375 5.234375 -18.832031 4.203125 -20.15625 C 3.179688 -21.488281 2.671875 -23.269531 2.671875 -25.5 C 2.671875 -27.582031 3.191406 -29.394531 4.234375 -30.9375 C 5.285156 -32.488281 6.75 -33.675781 8.625 -34.5 C 10.507812 -35.332031 12.664062 -35.75 15.09375 -35.75 C 18.726562 -35.75 21.679688 -34.863281 23.953125 -33.09375 C 26.222656 -31.320312 27.476562 -28.859375 27.71875 -25.703125 L 19.9375 -25.703125 C 19.875 -26.910156 19.363281 -27.910156 18.40625 -28.703125 C 17.445312 -29.492188 16.175781 -29.890625 14.59375 -29.890625 C 13.207031 -29.890625 12.101562 -29.535156 11.28125 -28.828125 C 10.457031 -28.117188 10.046875 -27.09375 10.046875 -25.75 C 10.046875 -24.800781 10.359375 -24.015625 10.984375 -23.390625 C 11.609375 -22.773438 12.378906 -22.269531 13.296875 -21.875 C 14.222656 -21.488281 15.53125 -21.046875 17.21875 -20.546875 C 19.5 -19.867188 21.363281 -19.191406 22.8125 -18.515625 C 24.257812 -17.847656 25.503906 -16.84375 26.546875 -15.5 C 27.597656 -14.15625 28.125 -12.390625 28.125 -10.203125 C 28.125 -8.316406 27.632812 -6.566406 26.65625 -4.953125 C 25.675781 -3.335938 24.242188 -2.046875 22.359375 -1.078125 C 20.472656 -0.117188 18.238281 0.359375 15.65625 0.359375 Z M 15.65625 0.359375 "/></g></g></g><g fill="#0097b2" fill-opacity="1"><g transform="translate(1244.875358, 232.354079)"><g/></g></g><g fill="#0097b2" fill-opacity="1"><g transform="translate(1197.388396, 1227.85068)"><g><path d="M 33.625 0 L 26.5625 0 L 10.546875 -24.1875 L 10.546875 0 L 3.484375 0 L 3.484375 -35.28125 L 10.546875 -35.28125 L 26.5625 -11.0625 L 26.5625 -35.28125 L 33.625 -35.28125 Z M 33.625 0 "/></g></g></g><g fill="#0097b2" fill-opacity="1"><g transform="translate(1234.49135, 1227.85068)"><g><path d="M 19.84375 0.359375 C 16.539062 0.359375 13.507812 -0.414062 10.75 -1.96875 C 7.988281 -3.519531 5.800781 -5.664062 4.1875 -8.40625 C 2.570312 -11.144531 1.765625 -14.25 1.765625 -17.71875 C 1.765625 -21.15625 2.570312 -24.242188 4.1875 -26.984375 C 5.800781 -29.722656 7.988281 -31.867188 10.75 -33.421875 C 13.507812 -34.972656 16.539062 -35.75 19.84375 -35.75 C 23.175781 -35.75 26.210938 -34.972656 28.953125 -33.421875 C 31.691406 -31.867188 33.859375 -29.722656 35.453125 -26.984375 C 37.054688 -24.242188 37.859375 -21.15625 37.859375 -17.71875 C 37.859375 -14.25 37.054688 -11.144531 35.453125 -8.40625 C 33.859375 -5.664062 31.679688 -3.519531 28.921875 -1.96875 C 26.160156 -0.414062 23.132812 0.359375 19.84375 0.359375 Z M 19.84375 -5.953125 C 21.957031 -5.953125 23.820312 -6.429688 25.4375 -7.390625 C 27.0625 -8.347656 28.328125 -9.71875 29.234375 -11.5 C 30.140625 -13.289062 30.59375 -15.363281 30.59375 -17.71875 C 30.59375 -20.070312 30.140625 -22.132812 29.234375 -23.90625 C 28.328125 -25.675781 27.0625 -27.03125 25.4375 -27.96875 C 23.820312 -28.90625 21.957031 -29.375 19.84375 -29.375 C 17.71875 -29.375 15.835938 -28.90625 14.203125 -27.96875 C 12.578125 -27.03125 11.304688 -25.675781 10.390625 -23.90625 C 9.484375 -22.132812 9.03125 -20.070312 9.03125 -17.71875 C 9.03125 -15.363281 9.484375 -13.289062 10.390625 -11.5 C 11.304688 -9.71875 12.578125 -8.347656 14.203125 -7.390625 C 15.835938 -6.429688 17.71875 -5.953125 19.84375 -5.953125 Z M 19.84375 -5.953125 "/></g></g></g><g fill="#0097b2" fill-opacity="1"><g transform="translate(1274.118321, 1227.85068)"><g><path d="M 15.796875 -35.234375 C 19.503906 -35.234375 22.757812 -34.507812 25.5625 -33.0625 C 28.375 -31.613281 30.546875 -29.550781 32.078125 -26.875 C 33.609375 -24.207031 34.375 -21.101562 34.375 -17.5625 C 34.375 -14.03125 33.609375 -10.941406 32.078125 -8.296875 C 30.546875 -5.660156 28.375 -3.617188 25.5625 -2.171875 C 22.757812 -0.722656 19.503906 0 15.796875 0 L 3.484375 0 L 3.484375 -35.234375 Z M 15.546875 -6 C 19.253906 -6 22.113281 -7.007812 24.125 -9.03125 C 26.144531 -11.050781 27.15625 -13.894531 27.15625 -17.5625 C 27.15625 -21.238281 26.144531 -24.109375 24.125 -26.171875 C 22.113281 -28.242188 19.253906 -29.28125 15.546875 -29.28125 L 10.546875 -29.28125 L 10.546875 -6 Z M 15.546875 -6 "/></g></g></g><g fill="#0097b2" fill-opacity="1"><g transform="translate(1310.312632, 1227.85068)"><g><path d="M 10.546875 -29.53125 L 10.546875 -20.703125 L 22.421875 -20.703125 L 22.421875 -15.09375 L 10.546875 -15.09375 L 10.546875 -5.75 L 23.921875 -5.75 L 23.921875 0 L 3.484375 0 L 3.484375 -35.28125 L 23.921875 -35.28125 L 23.921875 -29.53125 Z M 10.546875 -29.53125 "/></g></g></g><g fill="#0097b2" fill-opacity="1"><g transform="translate(1337.168108, 1227.85068)"><g/></g></g><g fill="#0097b2" fill-opacity="1"><g transform="translate(1349.182399, 1227.85068)"><g><path d="M 24.03125 -35.234375 L 24.03125 -10.5 C 24.03125 -7.0625 23.035156 -4.390625 21.046875 -2.484375 C 19.066406 -0.585938 16.410156 0.359375 13.078125 0.359375 C 9.710938 0.359375 6.992188 -0.613281 4.921875 -2.5625 C 2.847656 -4.519531 1.8125 -7.25 1.8125 -10.75 L 8.890625 -10.75 C 8.921875 -9.238281 9.28125 -8.0625 9.96875 -7.21875 C 10.65625 -6.375 11.65625 -5.953125 12.96875 -5.953125 C 14.25 -5.953125 15.222656 -6.351562 15.890625 -7.15625 C 16.566406 -7.96875 16.90625 -9.082031 16.90625 -10.5 L 16.90625 -35.234375 Z M 24.03125 -35.234375 "/></g></g></g><g fill="#0097b2" fill-opacity="1"><g transform="translate(1377.956123, 1227.85068)"><g><path d="M 15.65625 0.359375 C 13.195312 0.359375 10.984375 -0.0625 9.015625 -0.90625 C 7.046875 -1.75 5.488281 -2.960938 4.34375 -4.546875 C 3.195312 -6.128906 2.609375 -7.992188 2.578125 -10.140625 L 10.140625 -10.140625 C 10.242188 -8.691406 10.757812 -7.546875 11.6875 -6.703125 C 12.613281 -5.867188 13.882812 -5.453125 15.5 -5.453125 C 17.144531 -5.453125 18.4375 -5.847656 19.375 -6.640625 C 20.320312 -7.429688 20.796875 -8.46875 20.796875 -9.75 C 20.796875 -10.789062 20.472656 -11.644531 19.828125 -12.3125 C 19.191406 -12.988281 18.394531 -13.519531 17.4375 -13.90625 C 16.476562 -14.289062 15.160156 -14.722656 13.484375 -15.203125 C 11.191406 -15.867188 9.328125 -16.53125 7.890625 -17.1875 C 6.460938 -17.84375 5.234375 -18.832031 4.203125 -20.15625 C 3.179688 -21.488281 2.671875 -23.269531 2.671875 -25.5 C 2.671875 -27.582031 3.191406 -29.394531 4.234375 -30.9375 C 5.285156 -32.488281 6.75 -33.675781 8.625 -34.5 C 10.507812 -35.332031 12.664062 -35.75 15.09375 -35.75 C 18.726562 -35.75 21.679688 -34.863281 23.953125 -33.09375 C 26.222656 -31.320312 27.476562 -28.859375 27.71875 -25.703125 L 19.9375 -25.703125 C 19.875 -26.910156 19.363281 -27.910156 18.40625 -28.703125 C 17.445312 -29.492188 16.175781 -29.890625 14.59375 -29.890625 C 13.207031 -29.890625 12.101562 -29.535156 11.28125 -28.828125 C 10.457031 -28.117188 10.046875 -27.09375 10.046875 -25.75 C 10.046875 -24.800781 10.359375 -24.015625 10.984375 -23.390625 C 11.609375 -22.773438 12.378906 -22.269531 13.296875 -21.875 C 14.222656 -21.488281 15.53125 -21.046875 17.21875 -20.546875 C 19.5 -19.867188 21.363281 -19.191406 22.8125 -18.515625 C 24.257812 -17.847656 25.503906 -16.84375 26.546875 -15.5 C 27.597656 -14.15625 28.125 -12.390625 28.125 -10.203125 C 28.125 -8.316406 27.632812 -6.566406 26.65625 -4.953125 C 25.675781 -3.335938 24.242188 -2.046875 22.359375 -1.078125 C 20.472656 -0.117188 18.238281 0.359375 15.65625 0.359375 Z M 15.65625 0.359375 "/></g></g></g><g fill="#0097b2" fill-opacity="1"><g transform="translate(1408.704444, 1227.85068)"><g/></g></g><g fill="#0097b2" fill-opacity="1"><g transform="translate(65.950787, 1226.688312)"><g><path d="M 41.90625 -35.234375 L 41.90625 0 L 34.828125 0 L 34.828125 -22.921875 L 25.390625 0 L 20.046875 0 L 10.546875 -22.921875 L 10.546875 0 L 3.484375 0 L 3.484375 -35.234375 L 11.515625 -35.234375 L 22.71875 -9.03125 L 33.921875 -35.234375 Z M 41.90625 -35.234375 "/></g></g></g><g fill="#0097b2" fill-opacity="1"><g transform="translate(111.332496, 1226.688312)"><g><path d="M 19.84375 0.359375 C 16.539062 0.359375 13.507812 -0.414062 10.75 -1.96875 C 7.988281 -3.519531 5.800781 -5.664062 4.1875 -8.40625 C 2.570312 -11.144531 1.765625 -14.25 1.765625 -17.71875 C 1.765625 -21.15625 2.570312 -24.242188 4.1875 -26.984375 C 5.800781 -29.722656 7.988281 -31.867188 10.75 -33.421875 C 13.507812 -34.972656 16.539062 -35.75 19.84375 -35.75 C 23.175781 -35.75 26.210938 -34.972656 28.953125 -33.421875 C 31.691406 -31.867188 33.859375 -29.722656 35.453125 -26.984375 C 37.054688 -24.242188 37.859375 -21.15625 37.859375 -17.71875 C 37.859375 -14.25 37.054688 -11.144531 35.453125 -8.40625 C 33.859375 -5.664062 31.679688 -3.519531 28.921875 -1.96875 C 26.160156 -0.414062 23.132812 0.359375 19.84375 0.359375 Z M 19.84375 -5.953125 C 21.957031 -5.953125 23.820312 -6.429688 25.4375 -7.390625 C 27.0625 -8.347656 28.328125 -9.71875 29.234375 -11.5 C 30.140625 -13.289062 30.59375 -15.363281 30.59375 -17.71875 C 30.59375 -20.070312 30.140625 -22.132812 29.234375 -23.90625 C 28.328125 -25.675781 27.0625 -27.03125 25.4375 -27.96875 C 23.820312 -28.90625 21.957031 -29.375 19.84375 -29.375 C 17.71875 -29.375 15.835938 -28.90625 14.203125 -27.96875 C 12.578125 -27.03125 11.304688 -25.675781 10.390625 -23.90625 C 9.484375 -22.132812 9.03125 -20.070312 9.03125 -17.71875 C 9.03125 -15.363281 9.484375 -13.289062 10.390625 -11.5 C 11.304688 -9.71875 12.578125 -8.347656 14.203125 -7.390625 C 15.835938 -6.429688 17.71875 -5.953125 19.84375 -5.953125 Z M 19.84375 -5.953125 "/></g></g></g><g fill="#0097b2" fill-opacity="1"><g transform="translate(150.959466, 1226.688312)"><g><path d="M 33.625 0 L 26.5625 0 L 10.546875 -24.1875 L 10.546875 0 L 3.484375 0 L 3.484375 -35.28125 L 10.546875 -35.28125 L 26.5625 -11.0625 L 26.5625 -35.28125 L 33.625 -35.28125 Z M 33.625 0 "/></g></g></g><g fill="#0097b2" fill-opacity="1"><g transform="translate(188.062421, 1226.688312)"><g><path d="M 28.015625 -24.640625 C 27.210938 -26.117188 26.101562 -27.242188 24.6875 -28.015625 C 23.269531 -28.796875 21.617188 -29.1875 19.734375 -29.1875 C 17.648438 -29.1875 15.800781 -28.710938 14.1875 -27.765625 C 12.570312 -26.828125 11.304688 -25.484375 10.390625 -23.734375 C 9.484375 -21.984375 9.03125 -19.960938 9.03125 -17.671875 C 9.03125 -15.316406 9.492188 -13.265625 10.421875 -11.515625 C 11.347656 -9.765625 12.632812 -8.414062 14.28125 -7.46875 C 15.9375 -6.53125 17.859375 -6.0625 20.046875 -6.0625 C 22.734375 -6.0625 24.9375 -6.773438 26.65625 -8.203125 C 28.375 -9.628906 29.5 -11.625 30.03125 -14.1875 L 17.921875 -14.1875 L 17.921875 -19.59375 L 37 -19.59375 L 37 -13.421875 C 36.53125 -10.972656 35.519531 -8.703125 33.96875 -6.609375 C 32.425781 -4.523438 30.429688 -2.851562 27.984375 -1.59375 C 25.546875 -0.332031 22.816406 0.296875 19.796875 0.296875 C 16.390625 0.296875 13.316406 -0.46875 10.578125 -2 C 7.835938 -3.53125 5.679688 -5.65625 4.109375 -8.375 C 2.546875 -11.101562 1.765625 -14.203125 1.765625 -17.671875 C 1.765625 -21.140625 2.546875 -24.242188 4.109375 -26.984375 C 5.679688 -29.722656 7.835938 -31.859375 10.578125 -33.390625 C 13.316406 -34.921875 16.367188 -35.6875 19.734375 -35.6875 C 23.710938 -35.6875 27.164062 -34.71875 30.09375 -32.78125 C 33.019531 -30.851562 35.035156 -28.140625 36.140625 -24.640625 Z M 28.015625 -24.640625 "/></g></g></g><g fill="#0097b2" fill-opacity="1"><g transform="translate(226.831224, 1226.688312)"><g><path d="M 19.84375 0.359375 C 16.539062 0.359375 13.507812 -0.414062 10.75 -1.96875 C 7.988281 -3.519531 5.800781 -5.664062 4.1875 -8.40625 C 2.570312 -11.144531 1.765625 -14.25 1.765625 -17.71875 C 1.765625 -21.15625 2.570312 -24.242188 4.1875 -26.984375 C 5.800781 -29.722656 7.988281 -31.867188 10.75 -33.421875 C 13.507812 -34.972656 16.539062 -35.75 19.84375 -35.75 C 23.175781 -35.75 26.210938 -34.972656 28.953125 -33.421875 C 31.691406 -31.867188 33.859375 -29.722656 35.453125 -26.984375 C 37.054688 -24.242188 37.859375 -21.15625 37.859375 -17.71875 C 37.859375 -14.25 37.054688 -11.144531 35.453125 -8.40625 C 33.859375 -5.664062 31.679688 -3.519531 28.921875 -1.96875 C 26.160156 -0.414062 23.132812 0.359375 19.84375 0.359375 Z M 19.84375 -5.953125 C 21.957031 -5.953125 23.820312 -6.429688 25.4375 -7.390625 C 27.0625 -8.347656 28.328125 -9.71875 29.234375 -11.5 C 30.140625 -13.289062 30.59375 -15.363281 30.59375 -17.71875 C 30.59375 -20.070312 30.140625 -22.132812 29.234375 -23.90625 C 28.328125 -25.675781 27.0625 -27.03125 25.4375 -27.96875 C 23.820312 -28.90625 21.957031 -29.375 19.84375 -29.375 C 17.71875 -29.375 15.835938 -28.90625 14.203125 -27.96875 C 12.578125 -27.03125 11.304688 -25.675781 10.390625 -23.90625 C 9.484375 -22.132812 9.03125 -20.070312 9.03125 -17.71875 C 9.03125 -15.363281 9.484375 -13.289062 10.390625 -11.5 C 11.304688 -9.71875 12.578125 -8.347656 14.203125 -7.390625 C 15.835938 -6.429688 17.71875 -5.953125 19.84375 -5.953125 Z M 19.84375 -5.953125 "/></g></g></g><g fill="#0097b2" fill-opacity="1"><g transform="translate(266.458195, 1226.688312)"><g/></g></g><g fill="#0097b2" fill-opacity="1"><g transform="translate(278.472474, 1226.688312)"><g><path d="M 15.796875 -35.234375 C 19.503906 -35.234375 22.757812 -34.507812 25.5625 -33.0625 C 28.375 -31.613281 30.546875 -29.550781 32.078125 -26.875 C 33.609375 -24.207031 34.375 -21.101562 34.375 -17.5625 C 34.375 -14.03125 33.609375 -10.941406 32.078125 -8.296875 C 30.546875 -5.660156 28.375 -3.617188 25.5625 -2.171875 C 22.757812 -0.722656 19.503906 0 15.796875 0 L 3.484375 0 L 3.484375 -35.234375 Z M 15.546875 -6 C 19.253906 -6 22.113281 -7.007812 24.125 -9.03125 C 26.144531 -11.050781 27.15625 -13.894531 27.15625 -17.5625 C 27.15625 -21.238281 26.144531 -24.109375 24.125 -26.171875 C 22.113281 -28.242188 19.253906 -29.28125 15.546875 -29.28125 L 10.546875 -29.28125 L 10.546875 -6 Z M 15.546875 -6 "/></g></g></g><g fill="#0097b2" fill-opacity="1"><g transform="translate(314.666786, 1226.688312)"><g><path d="M 23.46875 -18.078125 C 25.457031 -17.703125 27.09375 -16.707031 28.375 -15.09375 C 29.65625 -13.476562 30.296875 -11.628906 30.296875 -9.546875 C 30.296875 -7.660156 29.832031 -6 28.90625 -4.5625 C 27.976562 -3.132812 26.640625 -2.015625 24.890625 -1.203125 C 23.140625 -0.398438 21.066406 0 18.671875 0 L 3.484375 0 L 3.484375 -35.234375 L 18.015625 -35.234375 C 20.410156 -35.234375 22.472656 -34.847656 24.203125 -34.078125 C 25.941406 -33.304688 27.253906 -32.226562 28.140625 -30.84375 C 29.035156 -29.46875 29.484375 -27.90625 29.484375 -26.15625 C 29.484375 -24.101562 28.9375 -22.382812 27.84375 -21 C 26.75 -19.625 25.289062 -18.648438 23.46875 -18.078125 Z M 10.546875 -20.703125 L 17.015625 -20.703125 C 18.691406 -20.703125 19.984375 -21.078125 20.890625 -21.828125 C 21.804688 -22.585938 22.265625 -23.675781 22.265625 -25.09375 C 22.265625 -26.507812 21.804688 -27.601562 20.890625 -28.375 C 19.984375 -29.144531 18.691406 -29.53125 17.015625 -29.53125 L 10.546875 -29.53125 Z M 17.671875 -5.75 C 19.390625 -5.75 20.726562 -6.148438 21.6875 -6.953125 C 22.644531 -7.765625 23.125 -8.914062 23.125 -10.40625 C 23.125 -11.914062 22.617188 -13.097656 21.609375 -13.953125 C 20.597656 -14.816406 19.234375 -15.25 17.515625 -15.25 L 10.546875 -15.25 L 10.546875 -5.75 Z M 17.671875 -5.75 "/></g></g></g></svg>